<?xml version="1.0"?>
<svg xmlns="http://www.w3.org/2000/svg" xmlns:xlink="http://www.w3.org/1999/xlink" xmlns:svgjs="http://svgjs.com/svgjs" version="1.1" width="512" height="512" x="0" y="0" viewBox="0 0 300 300" style="enable-background:new 0 0 512 512" xml:space="preserve" class=""><g><path xmlns="http://www.w3.org/2000/svg" d="m62 190.539v-137.078c0-8.523 6.938-15.461 15.461-15.461h81.078c8.523 0 15.461 6.938 15.461 15.461v67.664h16v-67.664c0-17.352-14.109-31.461-31.461-31.461h-81.078c-17.352 0-31.461 14.109-31.461 31.461v137.078c0 17.352 14.109 31.461 31.461 31.461h45.648v-16h-45.648c-8.523 0-15.461-6.938-15.461-15.461z" fill="#a1a1a1" data-original="#000000" style="" class=""/><path xmlns="http://www.w3.org/2000/svg" d="m210.258 224.852c-16.656-3.695-39.242-3.742-56.016-.109-4.312.938-7.055 5.195-6.125 9.516.938 4.312 5.203 7.07 9.516 6.125 14.547-3.156 34.727-3.109 49.156.094.586.125 1.164.188 1.742.188 3.664 0 6.977-2.539 7.805-6.266.953-4.314-1.766-8.588-6.078-9.548z" fill="#a1a1a1" data-original="#000000" style="" class=""/><circle xmlns="http://www.w3.org/2000/svg" cx="166" cy="190" r="8" fill="#a1a1a1" data-original="#000000" style="" class=""/><circle xmlns="http://www.w3.org/2000/svg" cx="198" cy="190" r="8" fill="#a1a1a1" data-original="#000000" style="" class=""/><path xmlns="http://www.w3.org/2000/svg" d="m78 62h56v16h-56z" fill="#a1a1a1" data-original="#000000" style="" class=""/><path xmlns="http://www.w3.org/2000/svg" d="m78 94h80v16h-80z" fill="#a1a1a1" data-original="#000000" style="" class=""/><path xmlns="http://www.w3.org/2000/svg" d="m78 126h56v16h-56z" fill="#a1a1a1" data-original="#000000" style="" class=""/><path xmlns="http://www.w3.org/2000/svg" d="m78 158h24v16h-24z" fill="#a1a1a1" data-original="#000000" style="" class=""/><path xmlns="http://www.w3.org/2000/svg" d="m182 278c-39.703 0-72-32.297-72-72s32.297-72 72-72 72 32.297 72 72-32.297 72-72 72zm0-128c-30.875 0-56 25.125-56 56s25.125 56 56 56 56-25.125 56-56-25.125-56-56-56z" fill="#9ccc65" data-original="#af16ef" style="" class=""/></g></svg>
